<svg width="20" height="20" viewBox="0 0 20 20" fill="none" xmlns="http://www.w3.org/2000/svg">
<path d="M13.1504 11.4351L13.0703 12.2699C14.191 10.9663 14.8656 9.27387 14.8656 7.43282C14.8656 3.32762 11.538 0 7.43282 0C3.32762 0 0 3.32762 0 7.43282C0 11.538 3.32762 14.8656 7.43282 14.8656C9.27387 14.8656 10.9663 14.191 12.2699 13.0703L11.4351 13.1504L18.2962 20L20 18.2962L13.1504 11.4351ZM7.43282 12.5786C4.58548 12.5786 2.28702 10.2802 2.28702 7.43282C2.28702 4.58548 4.58548 2.28702 7.43282 2.28702C10.2802 2.28702 12.5786 4.58548 12.5786 7.43282C12.5786 10.2802 10.2802 12.5786 7.43282 12.5786Z" fill="#DDDDDD"/>
</svg>
