<svg width="147" height="51" viewBox="0 0 147 51" fill="none" xmlns="http://www.w3.org/2000/svg">
<path d="M0 28.9999L147 0V22L0 50.9999V28.9999Z" fill="#57A2D1"/>
<path d="M7.81052 35.2394L8.61096 35.0838L10.4963 40.6118L12.1435 34.3971L13.011 34.2285L10.883 41.8846L10.2263 42.0122L7.81052 35.2394ZM7.52772 35.2944L8.25628 35.1527L8.47089 39.558L8.52957 42.3421L7.6716 42.5088L7.52772 35.2944ZM12.5269 34.3226L13.2603 34.1801L13.4042 41.3945L12.5462 41.5613L12.4918 38.6968L12.5269 34.3226ZM23.4097 38.6687L23.4217 39.4473L20.4788 40.0194L20.4667 39.2408L23.4097 38.6687ZM20.4931 32.7741L20.6369 39.9886L19.779 40.1554L19.6303 32.9418L20.4931 32.7741ZM22.9456 35.4113L22.9625 36.1889L20.4125 36.6846L20.4005 35.906L22.9456 35.4113ZM23.2347 32.2412L23.2477 33.0246L20.3479 33.5883L20.3349 32.8049L23.2347 32.2412ZM32.7501 35.336L33.587 35.1634C33.6107 35.6263 33.5531 36.0553 33.4144 36.4504C33.2788 36.8449 33.058 37.1763 32.7521 37.4447C32.4487 37.7092 32.0545 37.882 31.5695 37.963C31.1746 38.0298 30.8332 37.9967 30.5454 37.8636C30.2607 37.73 30.023 37.5308 29.8323 37.2661C29.6448 37.0008 29.5021 36.7018 29.4043 36.3693C29.3059 36.0337 29.2458 35.6988 29.224 35.3648L29.1747 34.0363C29.1614 33.6609 29.1877 33.2843 29.2535 32.9068C29.3188 32.526 29.4356 32.1717 29.604 31.8438C29.7724 31.5159 29.999 31.2398 30.2836 31.0153C30.5677 30.7877 30.9199 30.6379 31.3404 30.5662C31.7992 30.4869 32.1823 30.5302 32.4898 30.6959C32.8004 30.861 33.0442 31.1088 33.2212 31.4391C33.3982 31.7695 33.5187 32.1424 33.5829 32.5577L32.7192 32.7206C32.6797 32.4663 32.6178 32.2246 32.5335 31.9956C32.4518 31.7628 32.3254 31.5818 32.1544 31.4525C31.9827 31.3201 31.7426 31.2789 31.4339 31.3289C31.1317 31.3777 30.8863 31.4884 30.6977 31.6611C30.5084 31.8305 30.3646 32.0375 30.2662 32.2821C30.1679 32.5267 30.1023 32.7865 30.0695 33.0615C30.0368 33.3365 30.0254 33.6023 30.0355 33.859L30.0877 35.2019C30.098 35.4088 30.1239 35.6359 30.1654 35.8832C30.21 36.1298 30.2815 36.3613 30.3799 36.5776C30.4784 36.794 30.6157 36.9629 30.7919 37.0845C30.968 37.2061 31.1948 37.2466 31.4721 37.206C31.8196 37.1517 32.0839 37.0357 32.2649 36.8579C32.4459 36.6801 32.5706 36.4602 32.6391 36.1982C32.7069 35.933 32.7439 35.6456 32.7501 35.336ZM41.6211 28.6673L41.7649 35.8818L40.9118 36.0476L40.7679 28.8331L41.6211 28.6673ZM43.3993 28.3216L43.4123 29.105L39.0026 29.9622L38.9896 29.1788L43.3993 28.3216ZM53.6231 29.3288L53.6709 30.573C53.6867 30.9612 53.6639 31.347 53.6024 31.7304C53.5442 32.1131 53.4343 32.4694 53.273 32.7992C53.1148 33.1284 52.8921 33.4071 52.6048 33.6354C52.3208 33.8631 51.9618 34.0124 51.5279 34.0835C51.1171 34.1534 50.7648 34.1241 50.4712 33.9954C50.177 33.8636 49.9348 33.6669 49.7447 33.4054C49.554 33.1407 49.4075 32.8393 49.3053 32.501C49.2056 32.1589 49.1449 31.8126 49.1232 31.462L49.0744 30.213C49.0567 29.8317 49.0785 29.4495 49.14 29.0661C49.2014 28.6827 49.3129 28.3262 49.4742 27.9963C49.6382 27.6627 49.8622 27.3821 50.1462 27.1544C50.4329 26.9229 50.7915 26.772 51.2222 26.7015C51.6363 26.631 51.9901 26.66 52.2837 26.7887C52.5773 26.9173 52.8195 27.114 53.0102 27.3787C53.2003 27.6402 53.3436 27.9423 53.4401 28.285C53.5397 28.6271 53.6007 28.975 53.6231 29.3288ZM52.8235 30.7427L52.771 29.4745C52.7569 29.2485 52.7275 29.0121 52.6829 28.7654C52.6376 28.5156 52.5632 28.2863 52.4596 28.0776C52.3593 27.8683 52.2168 27.707 52.0323 27.5936C51.851 27.4796 51.614 27.4461 51.3213 27.4931C51.0121 27.5399 50.7631 27.6496 50.5745 27.8223C50.3853 27.9917 50.2402 28.2006 50.1392 28.4491C50.0409 28.6937 49.9772 28.9548 49.9483 29.2323C49.9187 29.5067 49.9096 29.7754 49.9209 30.0385L49.9773 31.3009C49.9902 31.5206 50.0192 31.7554 50.0645 32.0052C50.1123 32.2513 50.1867 32.4805 50.2877 32.693C50.3919 32.9049 50.535 33.0694 50.7169 33.1866C50.9021 33.3032 51.1381 33.3402 51.4249 33.2977C51.74 33.2464 51.9921 33.1361 52.1813 32.9666C52.3738 32.7966 52.5176 32.5896 52.6127 32.3456C52.7111 32.1009 52.7732 31.8402 52.7989 31.5632C52.8273 31.2825 52.8354 31.009 52.8235 30.7427ZM62.103 29.0931L60.5635 29.3874L60.5515 28.6088L61.9865 28.3398C62.2702 28.2813 62.5013 28.1734 62.6796 28.0161C62.8605 27.8549 62.9915 27.6586 63.0725 27.4273C63.153 27.1928 63.1828 26.9367 63.1619 26.6589C63.1452 26.4366 63.0953 26.2308 63.012 26.0413C62.9282 25.8487 62.8048 25.7003 62.6419 25.596C62.4823 25.491 62.2782 25.4561 62.0296 25.4912L60.6771 25.7491L60.8031 32.1811L59.9452 32.3479L59.7965 25.1343L61.9016 24.7301C62.3035 24.6653 62.6554 24.7013 62.9573 24.8383C63.2617 24.9714 63.5048 25.1812 63.6864 25.4676C63.8681 25.7539 63.9786 26.0922 64.018 26.4825C64.066 26.9341 64.0207 27.3409 63.8821 27.7027C63.7468 28.064 63.5284 28.3651 63.227 28.606C62.9257 28.847 62.551 29.0094 62.103 29.0931ZM74.4443 25.2816L74.4922 26.5258C74.5079 26.914 74.4851 27.2998 74.4236 27.6831C74.3654 28.0659 74.2556 28.4221 74.0942 28.752C73.936 29.0812 73.7133 29.3599 73.426 29.5882C73.142 29.8158 72.783 29.9652 72.3492 30.0363C71.9383 30.1062 71.5861 30.0768 71.2925 29.9482C70.9982 29.8164 70.7561 29.6197 70.5659 29.3582C70.3752 29.0935 70.2287 28.792 70.1265 28.4538C70.0268 28.1117 69.9662 27.7653 69.9444 27.4147L69.8956 26.1657C69.8779 25.7845 69.8998 25.4022 69.9612 25.0189C70.0227 24.6355 70.1341 24.2789 70.2955 23.9491C70.4594 23.6155 70.6834 23.3348 70.9675 23.1072C71.2541 22.8757 71.6127 22.7247 72.0434 22.6543C72.4575 22.5838 72.8113 22.6128 73.1049 22.7414C73.3985 22.8701 73.6407 23.0667 73.8314 23.3314C74.0216 23.5929 74.1648 23.895 74.2613 24.2377C74.361 24.5798 74.422 24.9278 74.4443 25.2816ZM73.6447 26.6955L73.5922 25.4273C73.5781 25.2012 73.5487 24.9649 73.5041 24.7182C73.4588 24.4683 73.3844 24.239 73.2809 24.0304C73.1805 23.8211 73.038 23.6597 72.8535 23.5464C72.6722 23.4324 72.4352 23.3989 72.1426 23.4458C71.8333 23.4927 71.5844 23.6024 71.3958 23.775C71.2065 23.9445 71.0614 24.1534 70.9605 24.4018C70.8621 24.6464 70.7985 24.9075 70.7695 25.1851C70.7399 25.4594 70.7308 25.7281 70.7422 25.9912L70.7985 27.2537C70.8114 27.4734 70.8404 27.7081 70.8857 27.958C70.9335 28.204 71.0079 28.4333 71.1089 28.6458C71.2131 28.8577 71.3562 29.0222 71.5381 29.1394C71.7233 29.2559 71.9593 29.293 72.2462 29.2505C72.5612 29.1992 72.8133 29.0888 73.0026 28.9194C73.195 28.7493 73.3388 28.5423 73.434 28.2983C73.5323 28.0537 73.5944 27.7929 73.6202 27.516C73.6485 27.2353 73.6567 26.9617 73.6447 26.6955ZM82.2414 24.7061L80.1672 21.1747L81.121 20.9893L82.5956 23.8414L83.7508 23.6168L83.6218 24.4378L82.2414 24.7061ZM82.6777 24.5964L81.2313 28.2103L80.1098 28.4283L82.0824 23.8367L82.6777 24.5964ZM84.0352 20.4228L84.1791 27.6373L83.3211 27.804L83.1773 20.5896L84.0352 20.4228ZM87.0645 19.834L85.146 24.1415L83.7848 24.4061L83.6214 23.642L84.6615 23.4398L86.01 20.0389L87.0645 19.834ZM86.2929 27.2264L84.6674 24.1102L85.1721 23.2261L87.309 27.0289L86.2929 27.2264ZM97.6836 24.2313L97.6956 25.0099L93.4442 25.8363L93.4321 25.0577L97.6836 24.2313ZM93.5663 25.0316L93.6147 27.5839L92.7616 27.7498L92.7035 25.1993L93.5663 25.0316ZM98.4265 24.0869L98.4644 26.6363L97.6113 26.8021L97.5637 24.2546L98.4265 24.0869ZM96.7513 17.951L96.7643 18.7344L94.3007 19.2133L94.2925 18.429L96.7513 17.951ZM97.499 17.8057L97.6429 25.0202L96.7802 25.1879L96.6363 17.9734L97.499 17.8057ZM93.9953 18.4868L94.8628 18.3181L94.8001 21.2452C94.7953 21.4252 94.7915 21.6531 94.7887 21.9289C94.7853 22.2015 94.7716 22.4976 94.7475 22.8173C94.7266 23.1364 94.6879 23.4573 94.6312 23.7801C94.5778 24.1022 94.4992 24.4059 94.3955 24.6914C94.295 24.9762 94.1635 25.2206 94.0008 25.4247C93.8382 25.6287 93.6367 25.7691 93.3962 25.8456L92.9792 25.9267L92.9384 25.1537L93.1799 25.1167C93.3607 24.8527 93.5014 24.57 93.602 24.2686C93.7052 23.9634 93.7803 23.6503 93.8274 23.3295C93.8744 23.0086 93.9046 22.686 93.9178 22.3618C93.9311 22.0376 93.9376 21.7213 93.9373 21.4129L93.9953 18.4868ZM108.018 22.2226L108.03 23.0012L105.087 23.5733L105.075 22.7947L108.018 22.2226ZM105.101 16.328L105.245 23.5425L104.387 23.7093L104.238 16.4958L105.101 16.328ZM107.553 18.9652L107.57 19.7428L105.02 20.2385L105.008 19.4599L107.553 18.9652ZM107.843 15.7951L107.856 16.5785L104.956 17.1422L104.943 16.3588L107.843 15.7951ZM117.629 17.0068L117.641 17.7854L114.698 18.3574L114.686 17.5788L117.629 17.0068ZM114.745 14.4535L114.889 21.668L114.031 21.8347L113.882 14.6212L114.745 14.4535ZM118.32 13.7585L118.464 20.9729L117.606 21.1397L117.458 13.9262L118.32 13.7585ZM125.704 17.8395L128.199 11.8383L129.09 11.665L129.234 18.8794L128.371 19.0471L128.262 13.547L125.764 19.554L124.882 19.7254L124.738 12.5109L125.596 12.3442L125.704 17.8395ZM139.288 16.1443L139.3 16.9229L136.357 17.495L136.345 16.7164L139.288 16.1443ZM136.371 10.2497L136.515 17.4642L135.657 17.631L135.508 10.4174L136.371 10.2497ZM138.824 12.8869L138.841 13.6645L136.291 14.1602L136.279 13.3816L138.824 12.8869ZM139.113 9.71681L139.126 10.5002L136.226 11.0639L136.213 10.2805L139.113 9.71681Z" fill="white"/>
</svg>
