<svg width="119" height="42" viewBox="0 0 119 42" fill="none" xmlns="http://www.w3.org/2000/svg">
<path d="M0 19.9999L119 0V22L0 41.9999V19.9999Z" fill="#CE6937"/>
<path d="M11.4526 25.9522L12.2556 25.8106L14.0442 31.3706L15.7996 25.1857L16.67 25.0322L14.4086 32.65L13.7498 32.7662L11.4526 25.9522ZM11.1689 26.0022L11.8998 25.8733L12.0375 30.2816L12.0476 33.0663L11.1868 33.2181L11.1689 26.0022ZM16.1843 25.1178L16.92 24.9881L16.938 32.204L16.0772 32.3558L16.0728 29.4907L16.1843 25.1178ZM26.9895 29.6532L26.988 30.4319L24.0355 30.9525L24.037 30.1738L26.9895 29.6532ZM24.1762 23.7086L24.1942 30.9245L23.3334 31.0763L23.3107 23.8613L24.1762 23.7086ZM26.5824 26.3882L26.5857 27.166L24.0275 27.6171L24.029 26.8384L26.5824 26.3882ZM26.9268 23.2237L26.9261 24.0072L24.0169 24.5201L24.0176 23.7366L26.9268 23.2237ZM36.5681 21.5236L36.5674 22.3071L33.9034 22.7769L33.9172 29.2101L33.0517 29.3627L33.0337 22.1468L36.5681 21.5236ZM43.8508 20.9287L42.0294 27.7797L41.1158 27.9408L43.2857 20.3391L43.858 20.2382L43.8508 20.9287ZM45.381 27.1887L43.4916 20.8879L43.4829 20.3044L44.0263 20.2085L46.2321 27.0386L45.381 27.1887ZM45.3664 24.5189L45.3657 25.3024L42.0862 25.8806L42.0869 25.0971L45.3664 24.5189ZM56.4951 18.01L56.5178 25.225L55.6523 25.3776L55.6336 18.9452L52.9889 19.4116L53.0027 25.8448L52.1371 25.9974L52.1192 18.7815L56.4951 18.01ZM65.1709 20.8731L63.6265 21.1405L63.628 20.3618L65.0675 20.1179C65.3522 20.0643 65.5851 19.9605 65.7662 19.8062C65.9499 19.6483 66.0843 19.4543 66.1693 19.2245C66.2538 18.9914 66.2881 18.7358 66.2721 18.4577C66.2593 18.2352 66.213 18.0285 66.133 17.8376C66.0525 17.6436 65.9318 17.493 65.7708 17.3859C65.6129 17.2782 65.4095 17.2397 65.1604 17.2704L63.8035 17.5047L63.8173 23.9379L62.9566 24.0897L62.9338 16.8746L65.0456 16.5072C65.4486 16.4494 65.7998 16.4916 66.0993 16.6338C66.4013 16.7723 66.6407 16.9862 66.8173 17.2757C66.994 17.5652 67.0986 17.9054 67.1312 18.2963C67.1713 18.7487 67.1189 19.1546 66.974 19.5139C66.8323 19.8728 66.6088 20.17 66.3032 20.4057C65.9977 20.6414 65.6203 20.7972 65.1709 20.8731ZM77.5768 17.2775L77.6029 18.5223C77.6119 18.9108 77.5824 19.2961 77.5142 19.6783C77.4493 20.06 77.3333 20.4143 77.1662 20.7413C77.0023 21.0676 76.7747 21.3425 76.4835 21.5657C76.1956 21.7883 75.8341 21.9314 75.399 21.9949C74.987 22.0576 74.6353 22.0221 74.344 21.8884C74.0521 21.7515 73.8134 21.5506 73.6279 21.2858C73.4418 21.0178 73.3006 20.7138 73.2043 20.3738C73.1106 20.0301 73.056 19.6827 73.0404 19.3318L73.0134 18.0821C73.0023 17.7007 73.0309 17.3188 73.099 16.9366C73.1671 16.5544 73.2847 16.1998 73.4519 15.8728C73.6216 15.5421 73.8505 15.2654 74.1385 15.0427C74.4291 14.8163 74.7903 14.6716 75.2221 14.6087C75.6374 14.5454 75.9907 14.5806 76.282 14.7144C76.5733 14.8481 76.812 15.049 76.9981 15.3169C77.1836 15.5817 77.3216 15.8863 77.4121 16.2306C77.5057 16.5744 77.5606 16.9233 77.5768 17.2775ZM76.7527 18.6772L76.7223 17.4083C76.7121 17.182 76.6869 16.9452 76.6466 16.6978C76.6057 16.4472 76.5353 16.2166 76.4354 16.0062C76.3387 15.7952 76.1991 15.6314 76.0166 15.5148C75.8372 15.3977 75.6009 15.36 75.3075 15.4018C74.9974 15.4433 74.7466 15.5487 74.555 15.718C74.3628 15.8841 74.2141 16.0904 74.1089 16.3371C74.0063 16.5799 73.9381 16.8399 73.9043 17.1169C73.8699 17.3907 73.8561 17.6592 73.8629 17.9224L73.8972 19.1857C73.9062 19.4055 73.9312 19.6408 73.972 19.8914C74.0156 20.1382 74.086 20.3688 74.1832 20.583C74.2837 20.7967 74.4239 20.9637 74.6038 21.084C74.7869 21.2038 75.0222 21.2449 75.3098 21.2074C75.6256 21.1616 75.8796 21.0557 76.0718 20.8896C76.2672 20.7229 76.4146 20.5184 76.514 20.2762C76.6166 20.0333 76.6832 19.7736 76.7138 19.4972C76.747 19.217 76.76 18.9437 76.7527 18.6772ZM87.5013 18.9833L87.4998 19.762L84.5473 20.2826L84.5488 19.5039L87.5013 18.9833ZM84.6881 13.0388L84.706 20.2547L83.8453 20.4064L83.8225 13.1914L84.6881 13.0388ZM87.0942 15.7183L87.0975 16.4962L84.5393 16.9472L84.5408 16.1685L87.0942 15.7183ZM87.4386 12.5538L87.4379 13.3373L84.5287 13.8503L84.5294 13.0668L87.4386 12.5538ZM94.4063 11.3252L94.4243 18.5411L93.5587 18.6937L93.5408 11.4778L94.4063 11.3252ZM97.931 10.7037L95.4846 15.1065L94.0805 15.3541L93.9352 14.5864L94.9017 14.416L96.801 10.9029L97.931 10.7037ZM97.0594 18.0764L94.974 15.023L95.4307 14.1542L98.05 17.9018L97.0594 18.0764ZM105.971 9.28601L105.989 16.5019L105.133 16.6528L105.115 9.43694L105.971 9.28601ZM107.755 8.97144L107.754 9.75495L103.33 10.535L103.331 9.7515L107.755 8.97144Z" fill="white"/>
</svg>
