<svg width="119" height="42" viewBox="0 0 119 42" fill="none" xmlns="http://www.w3.org/2000/svg">
<path d="M0 19.9999L119 0V22L0 41.9999V19.9999Z" fill="#89649B"/>
<path d="M14.3823 25.4445L14.3816 26.228L11.7176 26.6978L11.7314 33.131L10.8659 33.2836L10.8479 26.0677L14.3823 25.4445ZM21.665 24.8496L19.8436 31.7006L18.9299 31.8617L21.0999 24.26L21.6722 24.1591L21.665 24.8496ZM23.1952 31.1096L21.3058 24.8088L21.2971 24.2253L21.8405 24.1294L24.0463 30.9595L23.1952 31.1096ZM23.1806 28.4398L23.1799 29.2233L19.9004 29.8015L19.9011 29.018L23.1806 28.4398ZM31.7398 26.1422L31.0176 26.2646L31.0191 25.6545L31.6075 25.5606C31.8602 25.5128 32.0726 25.4241 32.2448 25.2946C32.4196 25.1613 32.5486 24.9931 32.6318 24.79C32.7182 24.5864 32.7538 24.357 32.7385 24.1018C32.722 23.8767 32.6661 23.6816 32.5709 23.5166C32.4783 23.3478 32.3474 23.2238 32.1781 23.1446C32.0119 23.0648 31.8116 23.0439 31.577 23.082C31.3418 23.1168 31.146 23.2059 30.9895 23.3492C30.8324 23.4893 30.7138 23.6606 30.6339 23.8631C30.5571 24.065 30.5181 24.2752 30.5169 24.4936L29.6667 24.6484C29.6452 24.358 29.6729 24.0838 29.7497 23.8256C29.8291 23.5637 29.9497 23.3293 30.1115 23.1222C30.2728 22.912 30.4702 22.7384 30.7039 22.6013C30.9408 22.4637 31.2053 22.3707 31.4976 22.3225C31.7905 22.2775 32.0592 22.283 32.3038 22.339C32.551 22.3913 32.7665 22.4888 32.9503 22.6316C33.1374 22.7738 33.2871 22.9573 33.3994 23.1821C33.515 23.4063 33.5873 23.6663 33.6163 23.9619C33.6436 24.248 33.6129 24.5145 33.5242 24.7616C33.435 25.0054 33.2998 25.2226 33.1185 25.4132C32.9405 25.6032 32.7319 25.7607 32.4928 25.8855C32.2569 26.0097 32.0059 26.0953 31.7398 26.1422ZM31.0177 25.8431L31.6244 25.7411C31.8981 25.6995 32.1541 25.6989 32.3927 25.7395C32.6306 25.7769 32.8414 25.857 33.0251 25.98C33.2114 26.0992 33.3622 26.261 33.4776 26.4655C33.5962 26.6693 33.6694 26.9159 33.6973 27.2052C33.7281 27.5303 33.7008 27.8342 33.6151 28.1171C33.5295 28.3999 33.3956 28.6532 33.2136 28.877C33.0311 29.0976 32.8088 29.2806 32.5469 29.426C32.2881 29.5707 31.9995 29.6679 31.681 29.7175C31.3844 29.7599 31.1129 29.7482 30.8667 29.6826C30.6236 29.6163 30.409 29.5054 30.223 29.3498C30.0395 29.1905 29.891 28.9952 29.7775 28.764C29.6667 28.529 29.5944 28.2691 29.5607 27.9841L30.4214 27.8324C30.4427 28.0468 30.5011 28.2464 30.5964 28.4312C30.6913 28.6128 30.8218 28.7534 30.9881 28.853C31.1544 28.9526 31.3571 28.9862 31.596 28.954C31.8605 28.9173 32.0887 28.8242 32.2805 28.6747C32.475 28.5214 32.6217 28.3319 32.7207 28.1062C32.8198 27.8805 32.8611 27.6369 32.8447 27.3753C32.8361 27.195 32.8062 27.035 32.7551 26.8953C32.7035 26.7524 32.6315 26.6345 32.5391 26.5417C32.4467 26.4489 32.331 26.3834 32.192 26.3451C32.0563 26.3062 31.8949 26.3 31.7078 26.3263L31.0145 26.4436L31.0177 25.8431ZM44.1773 23.1757L44.2034 24.4205C44.2124 24.809 44.1828 25.1943 44.1147 25.5765C44.0498 25.9582 43.9338 26.3125 43.7667 26.6394C43.6027 26.9658 43.3752 27.2406 43.084 27.4639C42.796 27.6865 42.4345 27.8296 41.9995 27.8931C41.5875 27.9558 41.2358 27.9203 40.9445 27.7866C40.6526 27.6496 40.4139 27.4488 40.2284 27.184C40.0423 26.916 39.9011 26.612 39.8048 26.272C39.7111 25.9282 39.6565 25.5809 39.6409 25.23L39.6139 23.9803C39.6028 23.5988 39.6313 23.217 39.6995 22.8348C39.7676 22.4525 39.8852 22.098 40.0523 21.771C40.2221 21.4403 40.451 21.1636 40.7389 20.9409C41.0295 20.7145 41.3908 20.5698 41.8226 20.5069C42.2378 20.4436 42.5911 20.4788 42.8824 20.6125C43.1738 20.7463 43.4125 20.9471 43.5985 21.2151C43.7841 21.4799 43.922 21.7845 44.0125 22.1288C44.1062 22.4726 44.1611 22.8215 44.1773 23.1757ZM43.3531 24.5754L43.3228 23.3065C43.3126 23.0802 43.2874 22.8434 43.247 22.596C43.2062 22.3454 43.1358 22.1148 43.0359 21.9044C42.9391 21.6933 42.7995 21.5295 42.617 21.413C42.4377 21.2959 42.2013 21.2582 41.9079 21.3C41.5979 21.3415 41.3471 21.4468 41.1555 21.6162C40.9633 21.7823 40.8146 21.9886 40.7093 22.2353C40.6067 22.4781 40.5385 22.7381 40.5047 23.0151C40.4704 23.2889 40.4566 23.5574 40.4633 23.8206L40.4976 25.0839C40.5067 25.3037 40.5316 25.539 40.5725 25.7896C40.616 26.0364 40.6864 26.267 40.7837 26.4812C40.8842 26.6949 41.0244 26.8618 41.2042 26.9822C41.3873 27.1019 41.6226 27.1431 41.9102 27.1056C42.2261 27.0598 42.4801 26.9539 42.6723 26.7878C42.8677 26.6211 43.015 26.4166 43.1145 26.1743C43.2171 25.9315 43.2837 25.6718 43.3143 25.3954C43.3475 25.1152 43.3604 24.8418 43.3531 24.5754ZM54.8421 18.3104L54.8649 25.5254L53.9993 25.678L53.9807 19.2456L51.3359 19.712L51.3497 26.1452L50.4842 26.2978L50.4662 19.082L54.8421 18.3104ZM63.518 21.1735L61.9735 21.4409L61.9751 20.6622L63.4145 20.4183C63.6993 20.3647 63.9322 20.2609 64.1132 20.1067C64.2969 19.9487 64.4313 19.7547 64.5164 19.5249C64.6009 19.2918 64.6352 19.0362 64.6192 18.7581C64.6064 18.5356 64.56 18.3289 64.4801 18.138C64.3996 17.944 64.2788 17.7934 64.1178 17.6863C63.96 17.5786 63.7565 17.5401 63.5074 17.5708L62.1505 17.8051L62.1644 24.2383L61.3036 24.3901L61.2809 17.175L63.3927 16.8076C63.7957 16.7498 64.1469 16.792 64.4463 16.9342C64.7484 17.0727 64.9877 17.2866 65.1644 17.5761C65.341 17.8656 65.4456 18.2058 65.4782 18.5967C65.5183 19.0491 65.4659 19.455 65.3211 19.8143C65.1794 20.1732 64.9558 20.4704 64.6503 20.7061C64.3448 20.9418 63.9673 21.0976 63.518 21.1735ZM75.9239 17.5779L75.95 18.8227C75.959 19.2112 75.9294 19.5965 75.8613 19.9787C75.7964 20.3604 75.6804 20.7147 75.5132 21.0417C75.3493 21.368 75.1218 21.6429 74.8306 21.8661C74.5426 22.0887 74.1811 22.2318 73.7461 22.2953C73.334 22.358 72.9824 22.3225 72.691 22.1888C72.3992 22.0519 72.1605 21.851 71.9749 21.5862C71.7889 21.3182 71.6477 21.0142 71.5514 20.6742C71.4577 20.3305 71.4031 19.9831 71.3874 19.6322L71.3605 18.3825C71.3494 18.0011 71.3779 17.6192 71.4461 17.237C71.5142 16.8548 71.6318 16.5002 71.7989 16.1732C71.9687 15.8425 72.1975 15.5658 72.4855 15.3431C72.7761 15.1167 73.1374 14.972 73.5692 14.9091C73.9844 14.8458 74.3377 14.881 74.629 15.0148C74.9204 15.1485 75.1591 15.3494 75.3451 15.6173C75.5306 15.8821 75.6686 16.1867 75.7591 16.531C75.8528 16.8748 75.9077 17.2238 75.9239 17.5779ZM75.0997 18.9776L75.0693 17.7087C75.0592 17.4824 75.034 17.2456 74.9936 16.9982C74.9528 16.7476 74.8824 16.517 74.7824 16.3066C74.6857 16.0956 74.5461 15.9318 74.3636 15.8152C74.1843 15.6981 73.9479 15.6604 73.6545 15.7022C73.3445 15.7437 73.0937 15.8491 72.9021 16.0184C72.7099 16.1845 72.5612 16.3908 72.4559 16.6375C72.3533 16.8803 72.2851 17.1403 72.2513 17.4173C72.217 17.6911 72.2031 17.9596 72.2099 18.2228L72.2442 19.4861C72.2533 19.7059 72.2782 19.9412 72.3191 20.1918C72.3626 20.4386 72.433 20.6692 72.5303 20.8834C72.6308 21.0971 72.7709 21.2641 72.9508 21.3844C73.1339 21.5042 73.3692 21.5453 73.6568 21.5078C73.9727 21.462 74.2267 21.3561 74.4189 21.19C74.6142 21.0233 74.7616 20.8189 74.861 20.5766C74.9637 20.3337 75.0303 20.074 75.0608 19.7976C75.0941 19.5174 75.107 19.2441 75.0997 18.9776ZM84.2933 16.9599L82.8555 17.2134L82.8491 16.446L84.0866 16.2377C84.3137 16.1944 84.5047 16.1062 84.6597 15.9731C84.8174 15.8362 84.9336 15.6703 85.0083 15.4753C85.0862 15.2797 85.1185 15.0691 85.1051 14.8434C85.0957 14.6401 85.0582 14.4649 84.9926 14.3178C84.9264 14.1675 84.8261 14.058 84.6917 13.9891C84.5599 13.9165 84.386 13.8959 84.1701 13.9274L83.0392 14.1218L83.0531 20.5551L82.1923 20.7068L82.1696 13.4918L84.0554 13.1642C84.3386 13.1209 84.5921 13.1241 84.8157 13.174C85.0425 13.2232 85.2371 13.3145 85.3995 13.4478C85.565 13.5806 85.6961 13.7525 85.7928 13.9635C85.8928 14.174 85.9561 14.4207 85.9828 14.7035C86.0131 15.0254 85.9688 15.3175 85.8498 15.5798C85.7307 15.8421 85.5573 16.0677 85.3295 16.2566C85.1017 16.4455 84.8427 16.5887 84.5524 16.6861L84.2933 16.9599ZM84.2745 20.3397L82.4808 20.656L82.9825 19.7891L84.1719 19.5893C84.4278 19.5408 84.6369 19.4428 84.7993 19.2952C84.9643 19.1438 85.0841 18.9607 85.1586 18.7459C85.2363 18.5306 85.2681 18.2986 85.254 18.0499C85.2414 17.8471 85.2048 17.6586 85.1443 17.4841C85.0833 17.3065 84.9846 17.1685 84.8483 17.0703C84.7119 16.972 84.5272 16.9368 84.2942 16.9647L83.1296 17.1651L83.1425 16.3943L84.5859 16.1447L84.7824 16.3877C85.064 16.391 85.2985 16.4653 85.4862 16.6107C85.6732 16.7529 85.8168 16.9392 85.9169 17.1694C86.0202 17.3991 86.0826 17.641 86.1043 17.895C86.1452 18.3142 86.0984 18.6959 85.9641 19.0402C85.8298 19.3845 85.6192 19.6712 85.3324 19.9003C85.045 20.1262 84.6923 20.2726 84.2745 20.3397ZM96.726 13.9099L96.7521 15.1547C96.7611 15.5432 96.7316 15.9285 96.6634 16.3108C96.5985 16.6924 96.4825 17.0467 96.3154 17.3737C96.1515 17.7001 95.9239 17.9749 95.6327 18.1981C95.3448 18.4208 94.9833 18.5638 94.5482 18.6273C94.1362 18.6901 93.7845 18.6546 93.4932 18.5208C93.2013 18.3839 92.9626 18.183 92.7771 17.9182C92.591 17.6503 92.4498 17.3463 92.3535 17.0063C92.2598 16.6625 92.2052 16.3151 92.1896 15.9642L92.1626 14.7146C92.1515 14.3331 92.1801 13.9512 92.2482 13.569C92.3163 13.1868 92.4339 12.8322 92.6011 12.5052C92.7708 12.1745 92.9997 11.8978 93.2877 11.6752C93.5783 11.4487 93.9395 11.3041 94.3713 11.2411C94.7866 11.1778 95.1399 11.2131 95.4312 11.3468C95.7225 11.4805 95.9612 11.6814 96.1473 11.9494C96.3328 12.2141 96.4708 12.5187 96.5612 12.863C96.6549 13.2068 96.7098 13.5558 96.726 13.9099ZM95.9019 15.3096L95.8715 14.0407C95.8613 13.8145 95.8361 13.5776 95.7958 13.3302C95.7549 13.0796 95.6845 12.8491 95.5846 12.6386C95.4879 12.4276 95.3483 12.2638 95.1657 12.1472C94.9864 12.0301 94.7501 11.9924 94.4566 12.0343C94.1466 12.0757 93.8958 12.1811 93.7042 12.3504C93.512 12.5165 93.3633 12.7229 93.2581 12.9695C93.1554 13.2124 93.0872 13.4723 93.0535 13.7493C93.0191 14.0231 93.0053 14.2916 93.012 14.5549L93.0464 15.8181C93.0554 16.038 93.0803 16.2732 93.1212 16.5238C93.1648 16.7707 93.2352 17.0012 93.3324 17.2154C93.4329 17.4291 93.5731 17.5961 93.753 17.7164C93.936 17.8362 94.1714 17.8773 94.4589 17.8398C94.7748 17.7941 95.0288 17.6881 95.221 17.522C95.4164 17.3554 95.5638 17.1509 95.6632 16.9086C95.7658 16.6657 95.8324 16.4061 95.863 16.1296C95.8962 15.8494 95.9092 15.5761 95.9019 15.3096ZM107.353 15.492L107.351 16.2707L103.086 17.0227L103.087 16.2441L107.353 15.492ZM103.222 16.2203L103.226 18.7731L102.37 18.924L102.356 16.3729L103.222 16.2203ZM108.098 15.3606L108.091 17.9102L107.235 18.0611L107.232 15.5132L108.098 15.3606ZM106.53 9.19638L106.529 9.97989L104.058 10.4157L104.063 9.63135L106.53 9.19638ZM107.28 9.06411L107.298 16.28L106.433 16.4326L106.415 9.21673L107.28 9.06411ZM103.765 9.68392L104.635 9.53045L104.522 12.456C104.514 12.6359 104.506 12.8637 104.498 13.1394C104.49 13.4118 104.471 13.7077 104.442 14.027C104.415 14.3456 104.371 14.6658 104.309 14.9875C104.25 15.3086 104.166 15.611 104.057 15.8946C103.952 16.1776 103.816 16.4197 103.65 16.6209C103.483 16.8221 103.279 16.9589 103.038 17.0312L102.619 17.105L102.592 16.3314L102.834 16.2986C103.02 16.0378 103.165 15.7577 103.271 15.458C103.379 15.1546 103.46 14.8429 103.513 14.5229C103.565 14.203 103.601 13.881 103.62 13.557C103.639 13.2331 103.651 12.9169 103.656 12.6086L103.765 9.68392Z" fill="white"/>
</svg>
