<svg width="119" height="42" viewBox="0 0 119 42" fill="none" xmlns="http://www.w3.org/2000/svg">
<path d="M0 19.9999L119 0V22L0 41.9999V19.9999Z" fill="#89649B"/>
<path d="M14.3824 25.4445L14.3817 26.228L11.7177 26.6978L11.7315 33.131L10.866 33.2836L10.848 26.0677L14.3824 25.4445ZM21.6651 24.8496L19.8437 31.7006L18.9301 31.8617L21.1001 24.26L21.6723 24.1591L21.6651 24.8496ZM23.1953 31.1096L21.3059 24.8088L21.2972 24.2253L21.8406 24.1294L24.0465 30.9595L23.1953 31.1096ZM23.1807 28.4398L23.18 29.2233L19.9005 29.8015L19.9012 29.018L23.1807 28.4398ZM31.7399 26.1422L31.0178 26.2646L31.0193 25.6545L31.6076 25.5606C31.8603 25.5128 32.0727 25.4241 32.2449 25.2946C32.4197 25.1613 32.5487 24.9931 32.6319 24.79C32.7183 24.5864 32.7539 24.357 32.7387 24.1018C32.7221 23.8767 32.6662 23.6816 32.571 23.5166C32.4784 23.3478 32.3475 23.2238 32.1782 23.1446C32.0121 23.0648 31.8117 23.0439 31.5771 23.082C31.342 23.1168 31.1461 23.2059 30.9896 23.3492C30.8325 23.4893 30.714 23.6606 30.634 23.8631C30.5572 24.065 30.5182 24.2752 30.5171 24.4936L29.6668 24.6484C29.6453 24.358 29.673 24.0838 29.7498 23.8256C29.8292 23.5637 29.9498 23.3293 30.1116 23.1222C30.2729 22.912 30.4704 22.7384 30.704 22.6013C30.9409 22.4637 31.2055 22.3707 31.4977 22.3225C31.7906 22.2775 32.0593 22.283 32.3039 22.339C32.5511 22.3913 32.7666 22.4888 32.9504 22.6316C33.1375 22.7738 33.2872 22.9573 33.3995 23.1821C33.5151 23.4063 33.5874 23.6663 33.6164 23.9619C33.6437 24.248 33.613 24.5145 33.5243 24.7616C33.4351 25.0054 33.2999 25.2226 33.1186 25.4132C32.9406 25.6032 32.732 25.7607 32.4929 25.8855C32.257 26.0097 32.006 26.0953 31.7399 26.1422ZM31.0178 25.8431L31.6246 25.7411C31.8982 25.6995 32.1542 25.6989 32.3928 25.7395C32.6308 25.7769 32.8416 25.857 33.0252 25.98C33.2115 26.0992 33.3623 26.261 33.4777 26.4655C33.5963 26.6693 33.6695 26.9159 33.6974 27.2052C33.7283 27.5303 33.7009 27.8342 33.6152 28.1171C33.5296 28.3999 33.3958 28.6532 33.2138 28.877C33.0312 29.0976 32.8089 29.2806 32.547 29.426C32.2883 29.5707 31.9996 29.6679 31.6811 29.7175C31.3845 29.7599 31.1131 29.7482 30.8668 29.6826C30.6237 29.6163 30.4092 29.5054 30.2231 29.3498C30.0396 29.1905 29.8911 28.9952 29.7777 28.764C29.6668 28.529 29.5945 28.2691 29.5608 27.9841L30.4216 27.8324C30.4428 28.0468 30.5012 28.2464 30.5966 28.4312C30.6914 28.6128 30.822 28.7534 30.9883 28.853C31.1546 28.9526 31.3572 28.9862 31.5961 28.954C31.8607 28.9173 32.0889 28.8242 32.2806 28.6747C32.4751 28.5214 32.6218 28.3319 32.7208 28.1062C32.8199 27.8805 32.8612 27.6369 32.8448 27.3753C32.8362 27.195 32.8063 27.035 32.7552 26.8953C32.7036 26.7524 32.6316 26.6345 32.5392 26.5417C32.4468 26.4489 32.3311 26.3834 32.1922 26.3451C32.0564 26.3062 31.895 26.3 31.7079 26.3263L31.0146 26.4436L31.0178 25.8431ZM44.1774 23.1757L44.2035 24.4205C44.2125 24.809 44.183 25.1943 44.1148 25.5765C44.0499 25.9582 43.9339 26.3125 43.7668 26.6394C43.6029 26.9658 43.3753 27.2406 43.0841 27.4639C42.7962 27.6865 42.4346 27.8296 41.9996 27.8931C41.5876 27.9558 41.2359 27.9203 40.9446 27.7866C40.6527 27.6496 40.414 27.4488 40.2285 27.184C40.0424 26.916 39.9012 26.612 39.8049 26.272C39.7112 25.9282 39.6566 25.5809 39.641 25.23L39.614 23.9803C39.6029 23.5988 39.6315 23.217 39.6996 22.8348C39.7677 22.4525 39.8853 22.098 40.0525 21.771C40.2222 21.4403 40.4511 21.1636 40.7391 20.9409C41.0297 20.7145 41.3909 20.5698 41.8227 20.5069C42.238 20.4436 42.5912 20.4788 42.8826 20.6125C43.1739 20.7463 43.4126 20.9471 43.5987 21.2151C43.7842 21.4799 43.9222 21.7845 44.0126 22.1288C44.1063 22.4726 44.1612 22.8215 44.1774 23.1757ZM43.3532 24.5754L43.3229 23.3065C43.3127 23.0802 43.2875 22.8434 43.2472 22.596C43.2063 22.3454 43.1359 22.1148 43.036 21.9044C42.9393 21.6933 42.7997 21.5295 42.6171 21.413C42.4378 21.2959 42.2015 21.2582 41.908 21.3C41.598 21.3415 41.3472 21.4468 41.1556 21.6162C40.9634 21.7823 40.8147 21.9886 40.7095 22.2353C40.6068 22.4781 40.5386 22.7381 40.5048 23.0151C40.4705 23.2889 40.4567 23.5574 40.4634 23.8206L40.4978 25.0839C40.5068 25.3037 40.5317 25.539 40.5726 25.7896C40.6161 26.0364 40.6865 26.267 40.7838 26.4812C40.8843 26.6949 41.0245 26.8618 41.2044 26.9822C41.3874 27.1019 41.6228 27.1431 41.9103 27.1056C42.2262 27.0598 42.4802 26.9539 42.6724 26.7878C42.8678 26.6211 43.0152 26.4166 43.1146 26.1743C43.2172 25.9315 43.2838 25.6718 43.3144 25.3954C43.3476 25.1152 43.3606 24.8418 43.3532 24.5754ZM54.8422 18.3104L54.865 25.5254L53.9994 25.678L53.9808 19.2456L51.3361 19.712L51.3499 26.1452L50.4843 26.2978L50.4664 19.082L54.8422 18.3104ZM63.5181 21.1735L61.9737 21.4409L61.9752 20.6622L63.4147 20.4183C63.6994 20.3647 63.9323 20.2609 64.1134 20.1067C64.297 19.9487 64.4314 19.7547 64.5165 19.5249C64.601 19.2918 64.6353 19.0362 64.6193 18.7581C64.6065 18.5356 64.5601 18.3289 64.4802 18.138C64.3997 17.944 64.279 17.7934 64.1179 17.6863C63.9601 17.5786 63.7567 17.5401 63.5076 17.5708L62.1507 17.8051L62.1645 24.2383L61.3037 24.3901L61.281 17.175L63.3928 16.8076C63.7958 16.7498 64.147 16.792 64.4464 16.9342C64.7485 17.0727 64.9879 17.2866 65.1645 17.5761C65.3412 17.8656 65.4458 18.2058 65.4783 18.5967C65.5184 19.0491 65.4661 19.455 65.3212 19.8143C65.1795 20.1732 64.9559 20.4704 64.6504 20.7061C64.3449 20.9418 63.9675 21.0976 63.5181 21.1735ZM75.924 17.5779L75.9501 18.8227C75.9591 19.2112 75.9295 19.5965 75.8614 19.9787C75.7965 20.3604 75.6805 20.7147 75.5134 21.0417C75.3495 21.368 75.1219 21.6429 74.8307 21.8661C74.5427 22.0887 74.1812 22.2318 73.7462 22.2953C73.3342 22.358 72.9825 22.3225 72.6912 22.1888C72.3993 22.0519 72.1606 21.851 71.9751 21.5862C71.789 21.3182 71.6478 21.0142 71.5515 20.6742C71.4578 20.3305 71.4032 19.9831 71.3876 19.6322L71.3606 18.3825C71.3495 18.0011 71.378 17.6192 71.4462 17.237C71.5143 16.8548 71.6319 16.5002 71.799 16.1732C71.9688 15.8425 72.1977 15.5658 72.4856 15.3431C72.7763 15.1167 73.1375 14.972 73.5693 14.9091C73.9846 14.8458 74.3378 14.881 74.6292 15.0148C74.9205 15.1485 75.1592 15.3494 75.3453 15.6173C75.5308 15.8821 75.6688 16.1867 75.7592 16.531C75.8529 16.8748 75.9078 17.2238 75.924 17.5779ZM75.0998 18.9776L75.0695 17.7087C75.0593 17.4824 75.0341 17.2456 74.9938 16.9982C74.9529 16.7476 74.8825 16.517 74.7826 16.3066C74.6859 16.0956 74.5462 15.9318 74.3637 15.8152C74.1844 15.6981 73.948 15.6604 73.6546 15.7022C73.3446 15.7437 73.0938 15.8491 72.9022 16.0184C72.71 16.1845 72.5613 16.3908 72.456 16.6375C72.3534 16.8803 72.2852 17.1403 72.2514 17.4173C72.2171 17.6911 72.2033 17.9596 72.21 18.2228L72.2444 19.4861C72.2534 19.7059 72.2783 19.9412 72.3192 20.1918C72.3627 20.4386 72.4331 20.6692 72.5304 20.8834C72.6309 21.0971 72.7711 21.2641 72.9509 21.3844C73.134 21.5042 73.3694 21.5453 73.6569 21.5078C73.9728 21.462 74.2268 21.3561 74.419 21.19C74.6144 21.0233 74.7618 20.8189 74.8612 20.5766C74.9638 20.3337 75.0304 20.074 75.061 19.7976C75.0942 19.5174 75.1072 19.2441 75.0998 18.9776ZM84.2934 16.9599L82.8556 17.2134L82.8492 16.446L84.0868 16.2377C84.3138 16.1944 84.5048 16.1062 84.6599 15.9731C84.8175 15.8362 84.9337 15.6703 85.0084 15.4753C85.0863 15.2797 85.1186 15.0691 85.1052 14.8434C85.0958 14.6401 85.0583 14.4649 84.9927 14.3178C84.9266 14.1675 84.8263 14.058 84.6918 13.9891C84.56 13.9165 84.3862 13.8959 84.1702 13.9274L83.0394 14.1218L83.0532 20.5551L82.1924 20.7068L82.1697 13.4918L84.0555 13.1642C84.3387 13.1209 84.5922 13.1241 84.8158 13.174C85.0427 13.2232 85.2373 13.3145 85.3996 13.4478C85.5651 13.5806 85.6963 13.7525 85.793 13.9635C85.8929 14.174 85.9562 14.4207 85.9829 14.7035C86.0133 15.0254 85.9689 15.3175 85.8499 15.5798C85.7309 15.8421 85.5574 16.0677 85.3296 16.2566C85.1018 16.4455 84.8428 16.5887 84.5526 16.6861L84.2934 16.9599ZM84.2746 20.3397L82.481 20.656L82.9826 19.7891L84.172 19.5893C84.4279 19.5408 84.637 19.4428 84.7994 19.2952C84.9644 19.1438 85.0842 18.9607 85.1587 18.7459C85.2364 18.5306 85.2682 18.2986 85.2541 18.0499C85.2415 17.8471 85.205 17.6586 85.1445 17.4841C85.0834 17.3065 84.9847 17.1685 84.8484 17.0703C84.7121 16.972 84.5274 16.9368 84.2943 16.9647L83.1297 17.1651L83.1426 16.3943L84.586 16.1447L84.7826 16.3877C85.0641 16.391 85.2987 16.4653 85.4863 16.6107C85.6733 16.7529 85.8169 16.9392 85.917 17.1694C86.0203 17.3991 86.0828 17.641 86.1044 17.895C86.1453 18.3142 86.0985 18.6959 85.9642 19.0402C85.8299 19.3845 85.6194 19.6712 85.3325 19.9003C85.0451 20.1262 84.6925 20.2726 84.2746 20.3397ZM96.7261 13.9099L96.7523 15.1547C96.7613 15.5432 96.7317 15.9285 96.6636 16.3108C96.5986 16.6924 96.4826 17.0467 96.3155 17.3737C96.1516 17.7001 95.924 17.9749 95.6329 18.1981C95.3449 18.4208 94.9834 18.5638 94.5483 18.6273C94.1363 18.6901 93.7846 18.6546 93.4933 18.5208C93.2014 18.3839 92.9627 18.183 92.7772 17.9182C92.5911 17.6503 92.4499 17.3463 92.3536 17.0063C92.26 16.6625 92.2053 16.3151 92.1897 15.9642L92.1627 14.7146C92.1517 14.3331 92.1802 13.9512 92.2483 13.569C92.3164 13.1868 92.4341 12.8322 92.6012 12.5052C92.7709 12.1745 92.9998 11.8978 93.2878 11.6752C93.5784 11.4487 93.9396 11.3041 94.3715 11.2411C94.7867 11.1778 95.14 11.2131 95.4313 11.3468C95.7226 11.4805 95.9613 11.6814 96.1474 11.9494C96.3329 12.2141 96.4709 12.5187 96.5614 12.863C96.655 13.2068 96.71 13.5558 96.7261 13.9099ZM95.902 15.3096L95.8716 14.0407C95.8615 13.8145 95.8362 13.5776 95.7959 13.3302C95.755 13.0796 95.6846 12.8491 95.5847 12.6386C95.488 12.4276 95.3484 12.2638 95.1659 12.1472C94.9866 12.0301 94.7502 11.9924 94.4568 12.0343C94.1468 12.0757 93.8959 12.1811 93.7043 12.3504C93.5122 12.5165 93.3634 12.7229 93.2582 12.9695C93.1556 13.2124 93.0874 13.4723 93.0536 13.7493C93.0192 14.0231 93.0054 14.2916 93.0122 14.5549L93.0465 15.8181C93.0555 16.038 93.0805 16.2732 93.1214 16.5238C93.1649 16.7707 93.2353 17.0012 93.3326 17.2154C93.433 17.4291 93.5732 17.5961 93.7531 17.7164C93.9362 17.8362 94.1715 17.8773 94.4591 17.8398C94.7749 17.7941 95.0289 17.6881 95.2211 17.522C95.4165 17.3554 95.5639 17.1509 95.6633 16.9086C95.7659 16.6657 95.8325 16.4061 95.8631 16.1296C95.8963 15.8494 95.9093 15.5761 95.902 15.3096ZM107.353 15.492L107.351 16.2707L103.086 17.0227L103.087 16.2441L107.353 15.492ZM103.222 16.2203L103.226 18.7731L102.37 18.924L102.357 16.3729L103.222 16.2203ZM108.098 15.3606L108.091 17.9102L107.236 18.0611L107.233 15.5132L108.098 15.3606ZM106.53 9.19638L106.53 9.97989L104.058 10.4157L104.063 9.63135L106.53 9.19638ZM107.28 9.06411L107.298 16.28L106.433 16.4326L106.415 9.21673L107.28 9.06411ZM103.765 9.68392L104.636 9.53045L104.522 12.456C104.514 12.6359 104.506 12.8637 104.498 13.1394C104.49 13.4118 104.471 13.7077 104.442 14.027C104.415 14.3456 104.371 14.6658 104.309 14.9875C104.25 15.3086 104.166 15.611 104.057 15.8946C103.952 16.1776 103.816 16.4197 103.65 16.6209C103.484 16.8221 103.28 16.9589 103.038 17.0312L102.62 17.105L102.592 16.3314L102.834 16.2986C103.02 16.0378 103.165 15.7577 103.271 15.458C103.38 15.1546 103.46 14.8429 103.513 14.5229C103.565 14.203 103.601 13.881 103.62 13.557C103.639 13.2331 103.651 12.9169 103.656 12.6086L103.765 9.68392Z" fill="white"/>
</svg>
