<svg width="79" height="32" viewBox="0 0 79 32" fill="none" xmlns="http://www.w3.org/2000/svg">
<path d="M0 10L79 0V22L0 32V10Z" fill="#52B4C0"/>
<path d="M16.0182 15.0536L15.7891 22.265L14.9188 22.3873L15.1246 15.9582L12.4652 16.332L12.2545 22.7618L11.3842 22.8841L11.6181 15.672L16.0182 15.0536ZM24.5888 18.2177L23.036 18.431L23.0647 17.6529L24.5118 17.4594C24.7983 17.4158 25.0346 17.3201 25.221 17.1723C25.4101 17.0208 25.5511 16.8317 25.6442 16.605C25.7368 16.375 25.7799 16.1208 25.7737 15.8422C25.7686 15.6194 25.7295 15.4112 25.6563 15.2177C25.5826 15.021 25.4672 14.8663 25.31 14.7536C25.1561 14.6404 24.9541 14.5949 24.704 14.6169L23.3398 14.8037L23.1291 21.2334L22.2636 21.3551L22.4926 14.1437L24.616 13.8502C25.0208 13.8064 25.3703 13.8609 25.6646 14.0134C25.9616 14.1623 26.1934 14.3845 26.3598 14.68C26.5262 14.9755 26.6189 15.3191 26.6378 15.7109C26.6621 16.1644 26.5956 16.5682 26.4383 16.9224C26.2842 17.276 26.0503 17.5653 25.7368 17.7901C25.4232 18.015 25.0406 18.1575 24.5888 18.2177ZM37.1127 15.0573L37.0953 16.3023C37.0908 16.6908 37.0478 17.0749 36.9663 17.4545C36.8881 17.8336 36.7598 18.1837 36.5814 18.5046C36.4062 18.8251 36.1692 19.0918 35.8704 19.3047C35.5748 19.5172 35.2085 19.6476 34.7716 19.6958C34.3576 19.7441 34.0074 19.6964 33.7209 19.5526C33.434 19.4055 33.2024 19.1965 33.0263 18.9254C32.8496 18.651 32.7191 18.3423 32.6348 17.9992C32.5531 17.6523 32.5107 17.3033 32.5073 16.952L32.524 15.7022C32.5262 15.3206 32.568 14.9399 32.6495 14.5603C32.7309 14.1807 32.8608 13.8304 33.0392 13.5095C33.2204 13.1849 33.4588 12.9164 33.7544 12.7039C34.0527 12.4878 34.4188 12.3558 34.8526 12.308C35.2698 12.2592 35.6216 12.3067 35.9081 12.4505C36.1945 12.5944 36.4261 12.8034 36.6027 13.0777C36.7789 13.3488 36.9061 13.658 36.9845 14.0053C37.0661 14.3521 37.1089 14.7028 37.1127 15.0573ZM36.2402 16.4274L36.2541 15.1582C36.2518 14.9317 36.2349 14.6941 36.2032 14.4455C36.1711 14.1936 36.1088 13.9607 36.0163 13.7469C35.927 13.5327 35.7932 13.3641 35.6149 13.2412C35.4397 13.1179 35.2048 13.072 34.9101 13.1036C34.5989 13.1342 34.3445 13.2307 34.1471 13.3933C33.9493 13.5526 33.7934 13.7536 33.6796 13.9964C33.5686 14.2356 33.4914 14.4929 33.4479 14.7686C33.4041 15.041 33.3809 15.3089 33.3784 15.5722L33.3687 16.8359C33.37 17.0559 33.3867 17.2919 33.4189 17.5438C33.4537 17.792 33.516 18.0249 33.6058 18.2424C33.6987 18.4594 33.833 18.6312 34.0086 18.7577C34.1874 18.8838 34.4211 18.9331 34.7098 18.9057C35.0271 18.871 35.2847 18.774 35.4825 18.6147C35.6836 18.4549 35.838 18.2557 35.9458 18.017C36.0569 17.7779 36.1325 17.5207 36.1727 17.2455C36.2157 16.9667 36.2382 16.6939 36.2402 16.4274ZM46.9716 17.1085L46.9429 17.8866L43.974 18.3039L44.0027 17.5257L46.9716 17.1085ZM44.3675 11.0693L44.1336 18.2815L43.2681 18.4031L43.4971 11.1917L44.3675 11.0693ZM46.6787 13.8312L46.6548 14.6087L44.0824 14.9702L44.1111 14.1921L46.6787 13.8312ZM47.1333 10.6806L47.1053 11.4636L44.1799 11.8748L44.2079 11.0918L47.1333 10.6806ZM54.1396 9.69596L53.9057 16.9081L53.0354 17.0304L53.2693 9.81828L54.1396 9.69596ZM57.6839 9.19784L55.0853 13.5126L53.6734 13.7111L53.555 12.9388L54.5269 12.8022L56.5476 9.35754L57.6839 9.19784ZM56.5555 16.5357L54.578 13.4113L55.0647 12.5589L57.5515 16.3957L56.5555 16.5357ZM65.7685 8.06163L65.5346 15.2737L64.6739 15.3947L64.9078 8.18259L65.7685 8.06163ZM67.5624 7.80951L67.5344 8.59251L63.0859 9.21771L63.1139 8.4347L67.5624 7.80951Z" fill="white"/>
</svg>
