<svg width="20" height="24" viewBox="0 0 20 24" fill="none" xmlns="http://www.w3.org/2000/svg">
<path fill-rule="evenodd" clip-rule="evenodd" d="M18.5227 13.6869C20.5122 10.3728 20.3409 5.67412 18.447 3.75719C17.3614 2.52272 15.5682 1.91693 13.6742 2.03195C12.6137 0.421725 10.9849 0 8.90151 0C5.68187 0 3.02425 1.57189 1.33651 4.21725C-0.559922 7.1897 -0.343588 10.5244 1.55302 13.6869C2.91725 15.9617 5.08964 17.8693 6.90591 17.8693C8.16962 17.8693 8.6603 17.5338 9.08757 17.2417C9.13969 17.206 9.19083 17.171 9.24242 17.1374C9.75401 16.8049 10.2459 16.8049 10.7576 17.1374C10.8096 17.1714 10.8614 17.2069 10.914 17.2429H10.9141C11.3404 17.5347 11.8291 17.8693 13.0911 17.8693C14.9186 17.8693 17.1389 15.9924 18.5227 13.6869ZM3.23578 10.6581C4.63039 10.7515 6.36001 11.1429 7.75621 11.4589C8.78886 11.6926 9.63908 11.885 10.0364 11.885C10.4144 11.885 11.2279 11.7011 12.2261 11.4755C13.6167 11.1612 15.3657 10.7657 16.7955 10.6734C16.5339 9.36062 15.8774 8.82725 15.0729 8.17373C14.3857 7.61535 13.5903 6.96921 12.8409 5.67412C11.2113 6.73546 9.47272 7.24441 7.91484 7.70047C5.74087 8.3369 3.91881 8.87026 3.23578 10.6581ZM6.28794 15.252C7.2085 15.5568 8.58022 14.481 8.4978 13.8702C8.4978 13.8702 6.6932 13.168 4.9309 13.1281C5.12711 14.5822 5.56761 15.0135 6.28794 15.252ZM11.2942 13.8643C11.2117 14.4751 12.5835 15.551 13.504 15.2461C14.2243 15.0076 14.6648 14.5763 14.8611 13.1222C13.0988 13.1621 11.2942 13.8643 11.2942 13.8643Z" fill="black"/>
<path fill-rule="evenodd" clip-rule="evenodd" d="M19.4485 13.3646C19.682 13.7285 19.8106 14.1947 19.8106 14.7987C19.8106 15.6143 19.4771 16.3648 19.038 16.9176C18.6711 17.3796 18.1811 17.7627 17.6767 17.8959C17.6617 17.9219 17.6451 17.9503 17.6272 17.9809C17.5256 18.154 17.3765 18.3996 17.1848 18.6933C16.802 19.2797 16.246 20.0625 15.5544 20.8437C14.1955 22.3787 12.208 24.0272 9.91144 23.9615C7.68644 23.8978 5.75626 22.26 4.43076 20.7546C3.7567 19.9892 3.21419 19.2294 2.84045 18.6618C2.6533 18.3776 2.50776 18.1405 2.40851 17.9735C2.39532 17.9513 2.38295 17.9304 2.37141 17.9107C2.1317 17.857 1.90844 17.7404 1.71367 17.6008C1.44017 17.405 1.18787 17.1397 0.97406 16.846C0.553724 16.2687 0.227277 15.5039 0.227272 14.7987C0.227268 14.2374 0.366085 13.8123 0.590712 13.4799C0.808742 13.1572 1.08745 12.9542 1.29552 12.8094L1.81055 13.5676C1.61458 13.704 1.45768 13.8268 1.34111 13.9994C1.23114 14.1621 1.13636 14.4015 1.13636 14.7987C1.13636 15.2468 1.35919 15.824 1.7059 16.3001C1.87562 16.5332 2.06129 16.7226 2.23877 16.8498C2.42088 16.9802 2.56172 17.0224 2.65149 17.0224H2.91954L3.04919 17.2597L3.04926 17.2598L3.0507 17.2624C3.05196 17.2647 3.05399 17.2683 3.05678 17.2733C3.06237 17.2834 3.07101 17.2988 3.08262 17.3192C3.10586 17.3601 3.141 17.421 3.18746 17.4991C3.28041 17.6555 3.41847 17.8805 3.59693 18.1515C3.95442 18.6944 4.47122 19.4177 5.10943 20.1424C6.40845 21.6177 8.1147 22.9895 9.93712 23.0418C11.802 23.0951 13.5456 21.734 14.8773 20.2297C15.5311 19.4912 16.0602 18.7469 16.4264 18.1861C16.6091 17.9061 16.7505 17.6731 16.8456 17.511C16.8932 17.43 16.9292 17.3667 16.953 17.3243C16.9648 17.3031 16.9736 17.2871 16.9794 17.2766C16.9812 17.2733 16.9827 17.2705 16.9839 17.2683L16.9856 17.2653L16.987 17.2627L16.9871 17.2625L19.4485 13.3646ZM16.9872 17.2624L17.1033 17.0465L17.3451 17.0243C17.5891 17.0018 17.9801 16.7811 18.3295 16.3412C18.6668 15.9164 18.9015 15.3634 18.9015 14.7987C18.9015 14.3293 18.8029 14.0478 18.686 13.8656C18.568 13.6817 18.4036 13.5547 18.1936 13.4402L18.6245 12.6301C18.9068 12.7839 19.216 13.002 19.4485 13.3646" fill="black"/>
</svg>
